<svg width="151" height="58" viewBox="0 0 151 58" fill="none" xmlns="http://www.w3.org/2000/svg">
<g clip-path="url(#clip0_397_1153)">
<path d="M75.1036 22.4918V26.3498H65.3603V37.9025H77.0694V14.7671H80.9735V37.9025L77.0694 41.7637H65.3603L61.4551 37.9025V26.3498L65.3603 22.4918H75.1036Z" fill="white"/>
<path d="M99.9855 22.4917L103.891 26.3497V30.208L99.9855 34.0699H90.131V30.208H99.9855V26.3497H88.2802V37.9024H101.927V41.7636H88.2802L84.375 37.9024V26.3497L88.2802 22.4917H99.9855Z" fill="white"/>
<path d="M122.907 22.4917L126.809 26.3497V37.9024L122.907 41.7636H113.163V37.9024H122.907V26.3497H111.198V49.4562H107.292V26.3497L111.198 22.4917H122.907Z" fill="white"/>
<path d="M149.728 26.3497H134.115V30.208H145.825L149.727 34.0699V37.9024L145.825 41.7636H130.21V37.9024H145.825V34.0699H134.115L130.21 30.208V26.3497L134.115 22.4917H149.728V26.3497Z" fill="white"/>
<path d="M54.7475 28.9388C54.8061 24.5789 52.3966 19.2744 52.3966 19.2744C52.3966 19.2744 51.7794 17.7338 51.0003 16.9201C50.2213 16.1064 48.5598 15.2033 48.5598 15.2033C48.5598 15.2033 48.7485 14.8507 48.7485 14.0952C48.7485 13.3397 47.919 12.4908 47.7085 12.2749C47.4979 12.059 44.4318 8.7088 40.655 6.77579C36.8789 4.84278 33.058 3.49121 27.5474 3.49121H27.5231C22.0125 3.49121 18.192 4.84278 14.4152 6.77579C10.6384 8.7088 7.57328 12.059 7.36238 12.2749C7.15148 12.4908 6.32199 13.3397 6.32199 14.0952C6.32199 14.8507 6.51137 15.2033 6.51137 15.2033C6.51137 15.2033 4.84957 16.1064 4.07086 16.9201C3.29215 17.7338 2.67497 19.2744 2.67497 19.2744C2.67497 19.2744 0.264431 24.5789 0.323328 28.9388C0.323328 28.9388 0.259493 29.7578 1.65644 31.1644C1.65644 31.1644 0.336024 32.4452 0.48838 34.1034C0.48838 34.1034 0.742306 36.7151 1.80915 39.5288C2.87564 42.3415 3.86631 44.0251 4.45034 44.8542C5.03437 45.6833 7.06613 47.0143 8.10758 47.3659C8.10758 47.3415 7.3712 48.8988 8.36186 50.1541C8.36186 50.1541 15.2697 57.6647 27.5114 57.8656H27.5594C39.8008 57.6647 46.709 50.1541 46.709 50.1541C47.6997 48.8985 46.9633 47.3415 46.9633 47.3659C48.0047 47.0143 50.0361 45.6833 50.6202 44.8542C51.2049 44.0251 52.1949 42.3419 53.2617 39.5288C54.3278 36.7155 54.5821 34.1034 54.5821 34.1034C54.7345 32.4452 53.4141 31.1644 53.4141 31.1644C54.811 29.7578 54.7475 28.9388 54.7475 28.9388ZM4.47749 17.5905C5.28159 16.6466 6.88944 15.8775 6.88944 15.8775C6.88944 15.8775 8.7692 18.5772 17.0521 19.9574C23.4553 20.9459 27.5086 20.8151 27.5086 20.8151H27.5301C27.5301 20.8151 31.5834 20.9459 37.9866 19.9574C46.2696 18.5772 48.1493 15.8775 48.1493 15.8775C48.1493 15.8775 49.7579 16.6466 50.5616 17.5905C51.3654 18.5343 51.7607 19.8967 51.7607 19.8967C51.7607 19.8967 50.6607 23.3002 42.4363 24.957C34.2123 26.6137 27.5449 26.4972 27.5449 26.4972H27.4938C27.4938 26.4972 20.8265 26.6137 12.6021 24.957C4.37769 23.3002 3.27804 19.8967 3.27804 19.8967C3.27804 19.8967 3.67339 18.5343 4.47749 17.5905ZM46.138 49.5765C45.3836 50.5092 43.9063 51.6592 43.4192 51.9079C42.9322 52.1566 40.2296 53.3996 34.7603 54.0372C30.5956 54.5967 27.5217 54.4411 27.5217 54.4411C27.5217 54.4411 24.4414 54.5964 20.2767 54.0372C14.8077 53.3996 12.1048 52.1562 11.6174 51.9079C11.13 51.6595 9.65301 50.5092 8.89864 49.5765C8.14426 48.6439 8.88312 47.6805 8.88312 47.6805C8.88312 47.6805 12.3718 49.1723 18.0767 49.887C23.7815 50.6023 27.5062 50.4625 27.5062 50.4625H27.5315C27.5315 50.4625 31.2562 50.602 36.9607 49.887C42.6652 49.1723 46.1542 47.6805 46.1542 47.6805C46.1542 47.6805 46.8927 48.6439 46.138 49.5765ZM53.7819 33.3528C53.8831 34.237 53.4835 35.6722 53.4835 35.6722C53.4835 35.6722 53.4141 36.0859 53.0469 36.3869C52.6798 36.6879 48.8395 40.0206 38.4698 41.2194C38.4698 41.2194 33.3182 41.9606 27.528 41.917H27.4839C21.6941 41.9606 16.5422 41.2194 16.5422 41.2194C6.17281 40.0203 2.33252 36.6879 1.96503 36.3869C1.59754 36.0859 1.52807 35.6722 1.52807 35.6722C1.52807 35.6722 1.12919 34.237 1.23076 33.3528C1.33198 32.4693 2.26269 31.6604 2.26269 31.6604C2.26269 31.6604 3.99327 33.0884 8.50646 34.4836C13.0196 35.8787 21.4299 36.9907 27.4839 36.8595H27.528C33.5824 36.9903 41.9923 35.8787 46.5058 34.4836C51.019 33.0884 52.7493 31.6604 52.7493 31.6604C52.7493 31.6604 53.6807 32.4693 53.7819 33.3528Z" fill="#F9FFB5"/>
</g>
<path d="M144.568 14.9999V4.09084H146.621V5.8238H146.735C146.933 5.23668 147.284 4.77503 147.786 4.43885C148.292 4.09795 148.865 3.92749 149.504 3.92749C149.637 3.92749 149.793 3.93223 149.973 3.9417C150.158 3.95116 150.302 3.963 150.406 3.97721V6.00846C150.321 5.98478 150.17 5.95874 149.952 5.93033C149.734 5.89719 149.516 5.88062 149.298 5.88062C148.797 5.88062 148.349 5.98715 147.956 6.20022C147.568 6.40855 147.26 6.69974 147.033 7.0738C146.806 7.44312 146.692 7.86452 146.692 8.338V14.9999H144.568Z" fill="#F9FFB5"/>
<path d="M136.356 15.2416C135.665 15.2416 135.04 15.1137 134.481 14.8581C133.922 14.5976 133.48 14.2212 133.153 13.7288C132.831 13.2364 132.67 12.6327 132.67 11.9177C132.67 11.3022 132.788 10.7956 133.025 10.3978C133.262 10.0001 133.581 9.68524 133.984 9.45324C134.386 9.22123 134.836 9.04604 135.333 8.92767C135.83 8.8093 136.337 8.71933 136.853 8.65778C137.507 8.58202 138.037 8.52047 138.444 8.47312C138.851 8.42104 139.147 8.33818 139.332 8.22454C139.517 8.11091 139.609 7.92625 139.609 7.67056V7.62085C139.609 7.00058 139.434 6.52 139.083 6.17909C138.738 5.83818 138.222 5.66772 137.535 5.66772C136.82 5.66772 136.257 5.82634 135.845 6.14358C135.437 6.45608 135.156 6.80409 134.999 7.18761L133.004 6.73306C133.24 6.07019 133.586 5.53515 134.041 5.12795C134.5 4.71602 135.028 4.41772 135.624 4.23306C136.221 4.04367 136.848 3.94897 137.507 3.94897C137.942 3.94897 138.404 4.00106 138.892 4.10522C139.384 4.20466 139.843 4.38931 140.269 4.6592C140.7 4.92909 141.053 5.31498 141.328 5.81687C141.602 6.31403 141.74 6.96034 141.74 7.75579V15.0001H139.666V13.5086H139.58C139.443 13.7833 139.237 14.0531 138.963 14.3183C138.688 14.5834 138.335 14.8036 137.904 14.9788C137.473 15.154 136.957 15.2416 136.356 15.2416ZM136.818 13.537C137.405 13.537 137.907 13.421 138.323 13.189C138.745 12.957 139.064 12.654 139.282 12.2799C139.505 11.9012 139.616 11.4963 139.616 11.0655V9.6592C139.54 9.73496 139.393 9.80598 139.176 9.87227C138.963 9.93382 138.719 9.98827 138.444 10.0356C138.169 10.0782 137.902 10.1185 137.642 10.1564C137.381 10.1895 137.163 10.2179 136.988 10.2416C136.576 10.2937 136.2 10.3813 135.859 10.5044C135.523 10.6275 135.253 10.805 135.049 11.037C134.85 11.2643 134.751 11.5673 134.751 11.9461C134.751 12.4717 134.945 12.8694 135.333 13.1393C135.722 13.4045 136.216 13.537 136.818 13.537Z" fill="#F9FFB5"/>
<path d="M130.325 0.45459V15H128.201V0.45459H130.325Z" fill="#F9FFB5"/>
<path d="M120.745 15.2203C119.723 15.2203 118.83 14.9859 118.068 14.5172C117.306 14.0484 116.714 13.3926 116.292 12.5498C115.871 11.707 115.66 10.7222 115.66 9.59528C115.66 8.46365 115.871 7.47407 116.292 6.62653C116.714 5.77899 117.306 5.12085 118.068 4.6521C118.83 4.18335 119.723 3.94897 120.745 3.94897C121.768 3.94897 122.661 4.18335 123.423 4.6521C124.185 5.12085 124.777 5.77899 125.199 6.62653C125.62 7.47407 125.831 8.46365 125.831 9.59528C125.831 10.7222 125.62 11.707 125.199 12.5498C124.777 13.3926 124.185 14.0484 123.423 14.5172C122.661 14.9859 121.768 15.2203 120.745 15.2203ZM120.752 13.4376C121.415 13.4376 121.965 13.2624 122.4 12.912C122.836 12.5617 123.158 12.0953 123.366 11.5129C123.579 10.9305 123.686 10.2889 123.686 9.58818C123.686 8.89216 123.579 8.25295 123.366 7.67056C123.158 7.08344 122.836 6.61233 122.4 6.25721C121.965 5.9021 121.415 5.72454 120.752 5.72454C120.085 5.72454 119.531 5.9021 119.091 6.25721C118.655 6.61233 118.331 7.08344 118.118 7.67056C117.909 8.25295 117.805 8.89216 117.805 9.58818C117.805 10.2889 117.909 10.9305 118.118 11.5129C118.331 12.0953 118.655 12.5617 119.091 12.912C119.531 13.2624 120.085 13.4376 120.752 13.4376Z" fill="#F9FFB5"/>
<path d="M113.602 6.75437L111.677 7.09528C111.597 6.84907 111.469 6.61469 111.294 6.39216C111.123 6.16962 110.891 5.98733 110.598 5.84528C110.304 5.70324 109.937 5.63221 109.497 5.63221C108.896 5.63221 108.394 5.76716 107.991 6.03704C107.589 6.30219 107.388 6.64547 107.388 7.06687C107.388 7.43145 107.522 7.72502 107.792 7.94755C108.062 8.17009 108.498 8.35238 109.099 8.49443L110.832 8.89216C111.836 9.12416 112.584 9.48165 113.076 9.9646C113.569 10.4476 113.815 11.0749 113.815 11.8467C113.815 12.5001 113.626 13.0825 113.247 13.5939C112.873 14.1005 112.35 14.4982 111.677 14.787C111.01 15.0759 110.236 15.2203 109.355 15.2203C108.133 15.2203 107.137 14.9599 106.365 14.439C105.593 13.9135 105.12 13.1677 104.944 12.2018L106.997 11.8893C107.125 12.4244 107.388 12.8292 107.785 13.1038C108.183 13.3737 108.701 13.5086 109.341 13.5086C110.037 13.5086 110.593 13.3642 111.01 13.0754C111.426 12.7818 111.635 12.4244 111.635 12.003C111.635 11.662 111.507 11.3756 111.251 11.1436C111 10.9116 110.614 10.7364 110.093 10.618L108.247 10.2132C107.229 9.98117 106.476 9.61185 105.988 9.10522C105.505 8.5986 105.264 7.95702 105.264 7.18051C105.264 6.53657 105.444 5.97312 105.804 5.49017C106.164 5.00721 106.661 4.63079 107.295 4.36091C107.93 4.08628 108.656 3.94897 109.476 3.94897C110.655 3.94897 111.583 4.20466 112.26 4.71602C112.937 5.22265 113.384 5.9021 113.602 6.75437Z" fill="#F9FFB5"/>
<defs>
<clipPath id="clip0_397_1153">
<rect width="150" height="55" fill="white" transform="translate(0 3)"/>
</clipPath>
</defs>
</svg>
